<svg width="1504" height="170" viewBox="0 0 1504 170" fill="none" xmlns="http://www.w3.org/2000/svg">
<g clip-path="url(#clip0_1091_19)">
<g style="mix-blend-mode:multiply">
<rect x="63.75" width="42.5" height="170" fill="#0196CC"/>
</g>
<g style="mix-blend-mode:multiply">
<rect y="106.25" width="42.5" height="170" transform="rotate(-90 0 106.25)" fill="#F5E002"/>
</g>
<g style="mix-blend-mode:multiply">
<rect x="130.078" y="9.8699" width="42.5" height="170" transform="rotate(45 130.078 9.8699)" fill="#F258B8"/>
</g>
<g clip-path="url(#clip1_1091_19)">
<path d="M250.467 140.69V38.6411H291.417C304.5 38.6411 314.051 41.3886 320.069 46.8835C326.087 52.3784 329.096 59.7486 329.096 68.994C329.096 78.2394 326.087 85.6532 320.069 91.2353C314.138 96.7302 304.587 99.4777 291.417 99.4777H270.353V140.69H250.467ZM270.353 84.1704H288.8C295.342 84.1704 300.313 83.0365 303.715 80.7688C307.204 78.501 308.948 74.6197 308.948 69.1248C308.948 63.6299 307.204 59.7486 303.715 57.4808C300.313 55.1259 295.342 53.9484 288.8 53.9484H270.353V84.1704Z" fill="black"/>
<path d="M341.591 140.69V62.1907H359.253V76.3205H362.393C362.916 73.7911 363.875 71.3925 365.271 69.1248C366.667 66.8571 368.847 65.0254 371.813 63.6299C374.778 62.1471 378.747 61.4058 383.718 61.4058H387.512V79.068H382.279C374.778 79.068 369.327 80.9868 365.925 84.8246C362.611 88.6623 360.954 94.4625 360.954 102.225V140.69H341.591Z" fill="black"/>
<path d="M428.996 142.652C416.262 142.652 406.755 138.945 400.475 131.531C394.282 124.03 391.186 114 391.186 101.44C391.186 88.8803 394.282 78.8935 400.475 71.4798C406.755 63.9788 416.262 60.2283 428.996 60.2283C441.73 60.2283 451.237 63.9788 457.517 71.4798C463.797 78.8935 466.937 88.8803 466.937 101.44C466.937 114 463.797 124.03 457.517 131.531C451.237 138.945 441.73 142.652 428.996 142.652ZM428.996 129.176C435.189 129.176 439.681 126.821 442.472 122.111C445.35 117.402 446.789 110.511 446.789 101.44C446.789 92.3692 445.35 85.4787 442.472 80.7688C439.681 76.0589 435.189 73.7039 428.996 73.7039C422.891 73.7039 418.399 76.0589 415.52 80.7688C412.642 85.4787 411.203 92.3692 411.203 101.44C411.203 110.511 412.642 117.402 415.52 122.111C418.399 126.821 422.891 129.176 428.996 129.176Z" fill="black"/>
<path d="M506.26 142.39C499.195 142.39 493.351 140.646 488.729 137.157C484.106 133.668 480.617 128.827 478.262 122.635C475.907 116.442 474.73 109.334 474.73 101.309C474.73 93.1105 475.907 85.9584 478.262 79.853C480.617 73.7475 484.106 68.994 488.729 65.5924C493.439 62.1907 499.239 60.4899 506.129 60.4899C511.363 60.4899 515.593 61.4494 518.82 63.3682C522.134 65.2871 524.751 67.8601 526.67 71.0873H529.81V36.0245H549.173V140.69H531.38V130.485H528.24C526.495 133.712 523.835 136.503 520.259 138.858C516.77 141.213 512.104 142.39 506.26 142.39ZM511.363 128.261C516.945 128.261 521.393 125.862 524.707 121.065C528.109 116.18 529.81 109.639 529.81 101.44C529.81 93.2414 528.109 86.7434 524.707 81.9463C521.393 77.0619 516.945 74.6197 511.363 74.6197C506.129 74.6197 502.074 76.8875 499.195 81.423C496.317 85.9584 494.878 92.6308 494.878 101.44C494.878 110.249 496.317 116.922 499.195 121.457C502.074 125.993 506.129 128.261 511.363 128.261Z" fill="black"/>
<path d="M593.136 142.652C584.24 142.652 577.611 139.905 573.25 134.41C568.889 128.827 566.708 121.414 566.708 112.168V62.1907H586.071V108.767C586.071 114.436 587.074 118.841 589.08 121.981C591.174 125.121 594.488 126.691 599.024 126.691C604.519 126.691 608.749 124.554 611.714 120.28C614.68 116.006 616.163 110.773 616.163 104.58V62.1907H635.526V140.69H618.125V128.915H614.985C613.677 132.927 611.235 136.241 607.658 138.858C604.17 141.387 599.329 142.652 593.136 142.652Z" fill="black"/>
<path d="M685.305 142.652C673.356 142.652 664.285 138.945 658.092 131.531C651.899 124.03 648.803 114 648.803 101.44C648.803 88.2698 652.03 78.1086 658.484 70.9564C665.026 63.8043 674.01 60.2283 685.436 60.2283C695.553 60.2283 703.534 62.9321 709.378 68.3398C715.222 73.7475 718.71 81.1613 719.844 90.5811H700.743C700.132 85.3479 698.519 81.3357 695.902 78.5447C693.286 75.6664 689.884 74.2272 685.697 74.2272C680.115 74.2272 675.885 76.6258 673.007 81.423C670.216 86.1329 668.82 92.8053 668.82 101.44C668.82 110.075 670.216 116.791 673.007 121.588C675.885 126.298 680.072 128.653 685.567 128.653C689.84 128.653 693.286 127.214 695.902 124.336C698.519 121.457 700.132 117.445 700.743 112.299H719.844C718.623 121.632 715.047 129.046 709.116 134.54C703.272 139.948 695.335 142.652 685.305 142.652Z" fill="black"/>
<path d="M743.619 140.69C741.613 138.335 739.999 135.5 738.778 132.186C737.644 128.871 737.077 123.9 737.077 117.271V76.0589H726.349V62.1907H737.339V42.566H756.309V62.1907H769.131V76.0589H756.44V115.047C756.44 122.024 757.182 127.345 758.664 131.008C760.234 134.584 762.11 137.55 764.29 139.905V140.69H743.619Z" fill="black"/>
<path d="M781.523 140.69V62.1907H800.886V140.69H781.523ZM791.205 52.6401C787.716 52.6401 785.056 51.7242 783.224 49.8926C781.392 47.9737 780.476 45.5316 780.476 42.566C780.476 39.6005 781.392 37.202 783.224 35.3703C785.056 33.4515 787.716 32.492 791.205 32.492C794.693 32.492 797.354 33.4515 799.185 35.3703C801.017 37.202 801.933 39.6005 801.933 42.566C801.933 45.5316 801.017 47.9737 799.185 49.8926C797.354 51.7242 794.693 52.6401 791.205 52.6401Z" fill="black"/>
<path d="M834.162 140.69L811.267 62.9757V62.1907H830.761L848.423 124.859H851.563L869.225 62.1907H887.149V62.9757L864.253 140.69H834.162Z" fill="black"/>
<path d="M897.358 140.69V62.1907H916.721V140.69H897.358ZM907.039 52.6401C903.551 52.6401 900.89 51.7242 899.059 49.8926C897.227 47.9737 896.311 45.5316 896.311 42.566C896.311 39.6005 897.227 37.202 899.059 35.3703C900.89 33.4515 903.551 32.492 907.039 32.492C910.528 32.492 913.188 33.4515 915.02 35.3703C916.852 37.202 917.768 39.6005 917.768 42.566C917.768 45.5316 916.852 47.9737 915.02 49.8926C913.188 51.7242 910.528 52.6401 907.039 52.6401Z" fill="black"/>
<path d="M946.465 140.69C944.459 138.335 942.845 135.5 941.624 132.186C940.49 128.871 939.923 123.9 939.923 117.271V76.0589H929.195V62.1907H940.185V42.566H959.155V62.1907H971.977V76.0589H959.286V115.047C959.286 122.024 960.027 127.345 961.51 131.008C963.08 134.584 964.955 137.55 967.136 139.905V140.69H946.465Z" fill="black"/>
<path d="M988.948 166.856V166.463C991.216 162.8 993.658 158.526 996.275 153.642C998.891 148.845 1001.2 144.178 1003.21 139.643L975.865 62.9757V62.1907H995.097L1004.91 89.6653C1006.04 93.0669 1007.18 96.6866 1008.31 100.524C1009.53 104.362 1010.75 109.159 1011.97 114.916H1015.11C1016.34 109.159 1017.51 104.362 1018.65 100.524C1019.87 96.6866 1021.09 93.0669 1022.31 89.6653L1032.12 62.1907H1050.18V62.9757L1025.45 130.877C1022.4 139.25 1019.43 146.49 1016.55 152.595C1013.68 158.701 1011.23 163.454 1009.23 166.856H988.948Z" fill="black"/>
<path d="M1090.48 140.69V38.6411H1125.54L1159.43 124.859H1162.57V38.6411H1180.75V140.69H1145.56L1111.67 54.4717H1108.66V140.69H1090.48Z" fill="black"/>
<path d="M1231.72 142.652C1219.6 142.652 1210.35 138.945 1203.99 131.531C1197.62 124.03 1194.44 113.956 1194.44 101.309C1194.44 92.8489 1195.83 85.5659 1198.62 79.4605C1201.5 73.355 1205.69 68.6451 1211.18 65.3307C1216.77 61.9291 1223.53 60.2283 1231.46 60.2283C1242.98 60.2283 1251.74 63.7607 1257.76 70.8256C1263.86 77.8033 1266.92 88.0953 1266.92 101.702V106.019H1213.28C1213.71 112.997 1215.5 118.535 1218.64 122.635C1221.78 126.647 1226.14 128.653 1231.72 128.653C1236.08 128.653 1239.57 127.388 1242.19 124.859C1244.81 122.33 1246.6 119.233 1247.55 115.57H1266C1265.13 120.542 1263.34 125.077 1260.64 129.176C1257.93 133.189 1254.18 136.459 1249.39 138.989C1244.68 141.431 1238.79 142.652 1231.72 142.652ZM1213.41 93.5903H1248.08C1247.73 87.2231 1246.12 82.2952 1243.24 78.8063C1240.45 75.3175 1236.48 73.5731 1231.33 73.5731C1226.19 73.5731 1222.09 75.2739 1219.03 78.6755C1215.98 81.9899 1214.11 86.9615 1213.41 93.5903Z" fill="black"/>
<path d="M1271.45 140.69V139.905L1295.65 99.6085L1274.06 62.9757V62.1907H1295L1308.47 86.6562H1311.48L1324.43 62.1907H1343.93V62.9757L1323.39 99.216L1347.2 139.905V140.69H1325.74L1309.91 112.037H1306.9L1291.46 140.69H1271.45Z" fill="black"/>
<path d="M1382.74 142.652C1373.85 142.652 1367.22 139.905 1362.86 134.41C1358.49 128.827 1356.31 121.414 1356.31 112.168V62.1907H1375.68V108.767C1375.68 114.436 1376.68 118.841 1378.69 121.981C1380.78 125.121 1384.09 126.691 1388.63 126.691C1394.12 126.691 1398.35 124.554 1401.32 120.28C1404.29 116.006 1405.77 110.773 1405.77 104.58V62.1907H1425.13V140.69H1407.73V128.915H1404.59C1403.28 132.927 1400.84 136.241 1397.26 138.858C1393.78 141.387 1388.93 142.652 1382.74 142.652Z" fill="black"/>
<path d="M1472.03 142.652C1463.66 142.652 1456.94 141.3 1451.88 138.596C1446.83 135.892 1443.08 132.447 1440.63 128.261C1438.28 124.074 1436.97 119.844 1436.71 115.57H1455.16C1455.59 117.925 1456.51 120.149 1457.9 122.242C1459.39 124.248 1461.35 125.862 1463.79 127.083C1466.23 128.217 1469.28 128.784 1472.95 128.784C1477.22 128.784 1480.36 127.999 1482.37 126.429C1484.37 124.859 1485.38 122.809 1485.38 120.28C1485.38 118.012 1484.46 116.093 1482.63 114.523C1480.89 112.953 1478.09 111.514 1474.26 110.206L1464.84 107.066C1460.39 105.496 1456.29 103.795 1452.54 101.963C1448.88 100.045 1445.91 97.6024 1443.64 94.6369C1441.46 91.6714 1440.37 87.8773 1440.37 83.2546C1440.37 76.3641 1442.94 70.8256 1448.09 66.639C1453.32 62.3652 1460.61 60.2283 1469.94 60.2283C1476.74 60.2283 1482.32 61.3185 1486.69 63.4991C1491.05 65.5924 1494.32 68.4706 1496.5 72.1339C1498.77 75.71 1500.07 79.7221 1500.42 84.1704H1482.63C1482.19 80.9432 1480.89 78.3702 1478.7 76.4514C1476.52 74.5325 1473.38 73.5731 1469.28 73.5731C1465.71 73.5731 1463.01 74.3144 1461.17 75.7972C1459.34 77.1927 1458.43 79.1116 1458.43 81.5538C1458.43 83.996 1459.34 86.0457 1461.17 87.7029C1463.09 89.2728 1466.01 90.712 1469.94 92.0203L1479.23 95.0294C1483.68 96.4249 1487.73 98.0821 1491.4 100.001C1495.15 101.833 1498.07 104.231 1500.16 107.197C1502.34 110.162 1503.43 114 1503.43 118.71C1503.43 125.862 1500.73 131.662 1495.32 136.11C1490 140.471 1482.24 142.652 1472.03 142.652Z" fill="black"/>
</g>
</g>
<defs>
<clipPath id="clip0_1091_19">
<rect width="1504" height="170" fill="white"/>
</clipPath>
<clipPath id="clip1_1091_19">
<rect width="1254" height="135" fill="white" transform="translate(250 32)"/>
</clipPath>
</defs>
</svg>
